<svg width="36" height="36" viewBox="0 0 36 36" fill="none" xmlns="http://www.w3.org/2000/svg">
<path d="M0.782945 18.731C0.359509 18.3356 0.359508 17.6644 0.782945 17.269L4.24254 14.0392C4.49429 13.8041 4.60738 13.4561 4.54186 13.118L3.64146 8.47143C3.53126 7.90272 3.92583 7.35964 4.50076 7.28871L9.19811 6.70918C9.53993 6.66701 9.83599 6.45191 9.98173 6.13985L11.9845 1.85148C12.2296 1.32661 12.868 1.11918 13.3748 1.39973L17.5157 3.69191C17.817 3.85871 18.183 3.85871 18.4843 3.69191L22.6252 1.39973C23.132 1.11918 23.7704 1.32661 24.0155 1.85148L26.0183 6.13985C26.164 6.45191 26.4601 6.66701 26.8019 6.70918L31.4992 7.28871C32.0742 7.35964 32.4687 7.90271 32.3585 8.47143L31.4581 13.118C31.3926 13.4561 31.5057 13.8041 31.7575 14.0392L35.2171 17.269C35.6405 17.6644 35.6405 18.3356 35.2171 18.731L31.7575 21.9608C31.5057 22.1959 31.3926 22.5439 31.4581 22.882L32.3585 27.5286C32.4687 28.0973 32.0742 28.6404 31.4992 28.7113L26.8019 29.2908C26.4601 29.333 26.164 29.5481 26.0183 29.8601L24.0155 34.1485C23.7704 34.6734 23.132 34.8808 22.6252 34.6003L18.4843 32.3081C18.183 32.1413 17.817 32.1413 17.5157 32.3081L13.3748 34.6003C12.868 34.8808 12.2296 34.6734 11.9845 34.1485L9.98173 29.8601C9.83599 29.5481 9.53993 29.333 9.19811 29.2908L4.50076 28.7113C3.92583 28.6404 3.53126 28.0973 3.64146 27.5286L4.54186 22.882C4.60738 22.5439 4.49429 22.1959 4.24255 21.9608L0.782945 18.731Z" fill="black"/>
</svg>
