<svg width="1440" height="900" viewBox="0 0 1440 900" fill="none" xmlns="http://www.w3.org/2000/svg">
<path d="M705.381 55.6589C713.287 47.1902 726.713 47.1902 734.619 55.6589L811.269 137.76C815.969 142.795 822.93 145.056 829.692 143.746L939.961 122.378C951.335 120.174 962.196 128.066 963.615 139.564L977.368 251.039C978.211 257.875 982.514 263.796 988.755 266.711L1090.52 314.238C1101.02 319.141 1105.17 331.909 1099.56 342.046L1045.16 440.314C1041.83 446.34 1041.83 453.66 1045.16 459.686L1099.56 557.954C1105.17 568.091 1101.02 580.859 1090.52 585.762L988.755 633.289C982.514 636.204 978.211 642.125 977.368 648.961L963.615 760.436C962.196 771.934 951.335 779.826 939.961 777.622L829.692 756.254C822.93 754.944 815.969 757.205 811.269 762.24L734.619 844.341C726.713 852.81 713.287 852.81 705.381 844.341L628.731 762.24C624.031 757.205 617.07 754.944 610.308 756.254L500.039 777.622C488.665 779.826 477.804 771.934 476.385 760.436L462.632 648.961C461.789 642.125 457.486 636.204 451.245 633.289L349.477 585.762C338.979 580.859 334.831 568.091 340.442 557.954L394.838 459.686C398.174 453.66 398.174 446.34 394.838 440.314L340.442 342.046C334.831 331.909 338.979 319.141 349.477 314.238L451.245 266.711C457.486 263.796 461.789 257.875 462.632 251.039L476.385 139.564C477.804 128.066 488.665 120.174 500.039 122.378L610.308 143.746C617.07 145.056 624.031 142.795 628.731 137.76L705.381 55.6589Z" fill="#00FF00"/>
</svg>
